<svg width="512" height="512" viewBox="0 0 512 512" fill="none" xmlns="http://www.w3.org/2000/svg">
  <defs>
    <linearGradient id="bgGrad" x1="0" y1="0" x2="512" y2="512" gradientUnits="userSpaceOnUse">
      <stop offset="0" stop-color="#0F172A"/>
      <stop offset="1" stop-color="#020617"/>
    </linearGradient>
    <linearGradient id="iconGrad" x1="256" y1="80" x2="256" y2="432" gradientUnits="userSpaceOnUse">
      <stop offset="0" stop-color="#5EEAD4"/>
      <stop offset="1" stop-color="#14B8A6"/>
    </linearGradient>
    <filter id="shadow" x="0" y="0" width="512" height="512" filterUnits="userSpaceOnUse" color-interpolation-filters="sRGB">
      <feFlood flood-opacity="0" result="BackgroundImageFix"/>
      <feColorMatrix in="SourceAlpha" type="matrix" values="0 0 0 0 0 0 0 0 0 0 0 0 0 0 0 0 0 0 127 0" result="hardAlpha"/>
      <feOffset dy="4"/>
      <feGaussianBlur stdDeviation="15"/>
      <feComposite in2="hardAlpha" operator="out"/>
      <feColorMatrix type="matrix" values="0 0 0 0 0 0 0 0 0 0 0 0 0 0 0 0 0 0 0.25 0"/>
      <feBlend mode="normal" in2="BackgroundImageFix" result="effect1_dropShadow"/>
      <feBlend mode="normal" in="SourceGraphic" in2="effect1_dropShadow" result="shape"/>
    </filter>
  </defs>
  
  <rect width="512" height="512" rx="112" fill="url(#bgGrad)"/>
  
  <g filter="url(#shadow)">
    <path d="M256 80C268.15 80 278 89.8503 278 102C278 114.15 268.15 124 256 124C243.85 124 234 114.15 234 102C234 89.8503 243.85 80 256 80Z" fill="url(#iconGrad)"/>
    <path d="M256 140C263.732 140 270 146.268 270 154V210H330C337.732 210 344 216.268 344 224C344 231.732 337.732 238 330 238H270V355.275C292.001 350.551 311.536 339.231 326.602 324.164C337.5 313.266 355.202 313.266 366.1 324.164C376.999 335.063 376.999 352.765 366.1 363.664C333.376 396.388 286.376 416.55 235 416.55C183.624 416.55 136.624 396.388 103.9 363.664C93.0011 352.765 93.0011 335.063 103.9 324.164C114.798 313.266 132.5 313.266 143.398 324.164C158.464 339.231 177.999 350.551 200 355.275V238H140C132.268 238 126 231.732 126 224C126 216.268 132.268 210 140 210H200V154C200 146.268 206.268 140 214 140H256Z" fill="url(#iconGrad)"/>
  </g>
</svg>
